<mxfile host="app.diagrams.net" modified="2024-06-06T02:07:06.809Z" agent="Mozilla/5.0 (Windows NT 10.0; Win64; x64) AppleWebKit/537.36 (KHTML, like Gecko) Chrome/124.0.0.0 Safari/537.36 Edg/124.0.0.0" version="24.4.4" etag="CV1ZKe_dTc1cpt10cDXf" type="github">
  <diagram name="第 1 页" id="K8--I5_LjnJ05h2Om-nf">
    <mxGraphModel>
      <root>
        <mxCell id="0" />
        <mxCell id="1" parent="0" />
      </root>
    </mxGraphModel>
  </diagram>
</mxfile>
